<?xml version="1.0" encoding="UTF-8" standalone="no"?>
<!DOCTYPE svg PUBLIC "-//W3C//DTD SVG 20010904//EN"
              "http://www.w3.org/TR/2001/REC-SVG-20010904/DTD/svg10.dtd">

<svg xmlns="http://www.w3.org/2000/svg"
     width="1000" height="350">
  <path id="Zaznaczenie"
        fill="red"
        d="M 0.00,372.00
           C 0.00,372.00 24.00,365.73 24.00,365.73
             39.71,361.59 59.81,357.81 76.00,358.00
             76.00,358.00 86.00,358.96 86.00,358.96
             86.00,358.96 101.00,358.96 101.00,358.96
             118.16,358.97 148.13,351.34 164.00,344.57
             176.25,339.35 189.04,332.54 200.00,324.98
             200.00,324.98 218.00,313.04 218.00,313.04
             218.00,313.04 255.00,296.63 255.00,296.63
             255.00,296.63 291.00,276.75 291.00,276.75
             291.00,276.75 323.00,261.75 323.00,261.75
             326.84,259.83 337.57,253.91 341.00,253.35
             345.61,252.61 348.82,254.89 353.00,256.25
             358.40,258.01 362.39,258.34 368.00,257.58
             376.10,256.47 380.19,255.58 388.00,253.00
             391.47,251.85 399.79,248.82 403.00,248.65
             409.02,248.31 411.66,252.86 419.00,251.67
             424.99,250.70 433.02,245.05 438.00,243.63
             444.44,241.80 455.72,244.43 462.00,246.61
             469.00,249.03 486.37,262.66 492.00,268.04
             495.87,271.74 501.49,278.19 506.00,280.56
             516.31,285.96 535.74,279.73 548.00,280.01
             568.43,280.48 574.52,297.93 592.00,296.91
             605.57,296.12 616.22,286.82 628.00,281.32
             636.99,277.13 641.51,277.11 651.00,277.00
             656.94,276.93 661.30,275.79 667.00,274.37
             667.00,274.37 682.00,270.46 682.00,270.46
             682.00,270.46 724.00,253.88 724.00,253.88
             740.82,249.39 763.31,251.38 778.00,242.65
             788.86,236.20 788.67,228.42 799.00,221.47
             807.43,215.79 815.02,218.38 828.00,209.90
             834.40,205.72 841.71,196.51 849.00,196.47
             864.94,196.37 877.87,212.72 891.00,220.55
             891.00,220.55 947.00,244.27 947.00,244.27
             961.65,251.61 964.53,258.19 973.00,263.12
             985.05,270.14 998.46,270.12 1008.00,274.35
             1020.72,279.98 1029.98,290.54 1045.00,289.96
             1045.00,289.96 1056.00,289.00 1056.00,289.00
             1056.00,289.00 1076.00,289.00 1076.00,289.00
             1076.00,289.00 1088.00,288.05 1088.00,288.05
             1088.00,288.05 1101.00,288.05 1101.00,288.05
             1101.00,288.05 1114.00,289.00 1114.00,289.00
             1114.00,289.00 1137.00,289.00 1137.00,289.00
             1137.00,289.00 1154.00,290.00 1154.00,290.00
             1165.67,290.02 1177.59,290.55 1189.00,293.24
             1189.00,293.24 1230.00,308.77 1230.00,308.77
             1240.03,312.22 1264.28,317.40 1275.00,318.90
             1275.00,318.90 1283.00,318.90 1283.00,318.90
             1283.00,318.90 1298.00,321.00 1298.00,321.00
             1298.00,321.00 1306.00,321.00 1306.00,321.00
             1306.00,321.00 1366.00,328.00 1366.00,328.00
             1366.00,328.00 1385.00,329.49 1385.00,329.49
             1385.00,329.49 1429.00,324.00 1429.00,324.00
             1438.73,323.89 1448.38,324.91 1458.00,326.30
             1465.02,327.31 1471.84,328.91 1479.00,329.00
             1484.47,329.06 1496.18,329.41 1501.00,328.25
             1511.29,325.78 1520.15,320.51 1531.00,320.00
             1531.00,320.00 1531.00,487.00 1531.00,487.00
             1520.90,485.10 1516.46,479.38 1510.13,472.00
             1507.73,469.20 1503.39,463.03 1499.96,461.96
             1496.50,460.88 1492.85,463.71 1490.00,465.40
             1485.14,468.26 1479.87,471.38 1474.00,470.80
             1468.50,470.26 1459.46,464.62 1453.00,462.52
             1443.61,459.47 1434.66,460.02 1425.00,460.00
             1425.00,460.00 1404.00,458.47 1404.00,458.47
             1395.54,456.53 1397.73,454.02 1384.00,454.00
             1366.19,453.97 1357.61,453.46 1340.00,449.58
             1329.31,447.21 1323.97,443.02 1313.00,442.81
             1310.12,443.00 1304.58,443.17 1302.00,442.81
             1298.24,441.80 1296.17,439.84 1292.00,439.21
             1292.00,439.21 1266.00,438.00 1266.00,438.00
             1255.09,437.87 1247.21,434.88 1237.00,432.67
             1237.00,432.67 1228.00,431.10 1228.00,431.10
             1224.42,430.20 1219.98,427.77 1217.00,427.64
             1209.46,427.31 1197.73,437.07 1187.00,432.85
             1180.58,430.33 1178.38,423.63 1169.00,419.35
             1169.00,419.35 1157.00,415.31 1157.00,415.31
             1157.00,415.31 1132.00,404.87 1132.00,404.87
             1125.62,402.13 1122.28,401.75 1116.00,397.64
             1116.00,397.64 1093.00,379.60 1093.00,379.60
             1090.07,377.26 1085.37,373.13 1082.00,371.89
             1077.50,370.23 1059.44,372.99 1053.00,373.00
             1039.82,373.02 1018.31,373.69 1006.00,370.98
             998.19,369.27 985.73,363.73 978.00,360.55
             974.85,359.25 960.29,351.60 958.09,349.66
             953.21,345.37 953.16,341.60 946.00,337.82
             937.26,333.22 922.64,332.62 917.00,330.39
             917.00,330.39 908.00,325.63 908.00,325.63
             908.00,325.63 884.00,316.09 884.00,316.09
             884.00,316.09 869.00,313.49 869.00,313.49
             869.00,313.49 851.00,308.58 851.00,308.58
             851.00,308.58 826.00,304.21 826.00,304.21
             820.51,304.49 803.89,308.42 798.00,309.99
             787.23,312.85 786.39,311.74 775.00,317.26
             775.00,317.26 750.00,331.57 750.00,331.57
             750.00,331.57 709.00,342.72 709.00,342.72
             709.00,342.72 691.00,349.45 691.00,349.45
             675.46,354.98 651.48,359.97 635.00,360.00
             635.00,360.00 610.00,360.00 610.00,360.00
             610.00,360.00 568.00,357.00 568.00,357.00
             553.18,356.98 543.89,356.95 529.00,358.72
             529.00,358.72 518.00,359.68 518.00,359.68
             511.46,361.24 496.33,371.75 489.00,375.51
             482.63,378.78 475.12,379.25 469.00,383.13
             459.35,389.25 457.76,398.69 444.00,397.91
             444.00,397.91 421.00,394.51 421.00,394.51
             415.15,394.13 403.04,396.39 397.00,397.60
             397.00,397.60 360.00,406.12 360.00,406.12
             360.00,406.12 332.00,412.23 332.00,412.23
             332.00,412.23 302.00,428.13 302.00,428.13
             302.00,428.13 271.00,438.07 271.00,438.07
             271.00,438.07 235.00,450.57 235.00,450.57
             235.00,450.57 173.00,462.37 173.00,462.37
             173.00,462.37 120.00,479.35 120.00,479.35
             120.00,479.35 86.00,484.57 86.00,484.57
             68.41,489.85 59.01,505.13 45.00,513.12
             31.78,520.67 14.74,520.00 0.00,520.00
             0.00,520.00 0.00,372.00 0.00,372.00 Z" />
</svg>
