<?xml version="1.0" encoding="UTF-8" standalone="no"?>
<!DOCTYPE svg PUBLIC "-//W3C//DTD SVG 20010904//EN"
              "http://www.w3.org/TR/2001/REC-SVG-20010904/DTD/svg10.dtd">

<svg xmlns="http://www.w3.org/2000/svg"
     width="5.10333in" height="3.26667in"
     viewBox="0 0 1531 980">
  <path id="Zaznaczenie"
        fill="none" stroke="black" stroke-width="1"
        d="M 0.00,373.00
           C 9.60,371.70 11.72,369.95 20.00,367.75
             31.08,364.82 60.11,359.02 71.00,359.04
             71.00,359.04 84.00,359.04 84.00,359.04
             84.00,359.04 95.00,360.00 95.00,360.00
             95.00,360.00 110.00,358.96 110.00,358.96
             110.00,358.96 118.00,358.96 118.00,358.96
             131.44,357.39 139.41,353.03 155.00,353.00
             155.00,353.00 168.00,352.32 168.00,352.32
             171.81,352.61 186.28,353.66 188.96,354.74
             194.81,357.09 194.08,362.70 206.00,362.99
             223.65,363.41 243.61,355.03 262.00,355.00
             262.00,355.00 289.00,355.57 289.00,355.57
             303.06,353.57 304.19,349.47 313.00,349.04
             327.09,348.36 324.44,351.80 334.00,355.45
             340.04,357.75 356.70,360.26 363.00,359.82
             363.00,359.82 382.00,357.54 382.00,357.54
             394.60,355.16 406.97,350.11 420.00,350.59
             443.99,351.47 465.87,363.53 490.00,362.99
             490.00,362.99 540.00,355.00 540.00,355.00
             540.00,355.00 558.00,354.00 558.00,354.00
             558.00,354.00 582.00,356.00 582.00,356.00
             582.00,356.00 590.00,356.00 590.00,356.00
             590.00,356.00 609.00,358.00 609.00,358.00
             630.14,358.03 648.16,358.40 669.00,353.10
             669.00,353.10 695.00,344.95 695.00,344.95
             695.00,344.95 708.00,340.15 708.00,340.15
             708.00,340.15 747.00,329.91 747.00,329.91
             747.00,329.91 772.00,316.31 772.00,316.31
             778.55,313.36 784.24,312.46 791.00,310.58
             808.72,305.65 811.06,303.78 830.00,304.00
             850.94,304.25 877.81,317.44 897.00,314.70
             897.00,314.70 929.00,305.26 929.00,305.26
             942.68,302.69 950.73,305.63 965.00,300.66
             982.08,294.70 981.63,290.10 1004.00,285.60
             1009.70,284.45 1012.04,283.85 1018.00,284.02
             1027.97,284.29 1029.15,290.40 1042.00,290.96
             1042.00,290.96 1059.00,290.00 1059.00,290.00
             1059.00,290.00 1075.00,290.00 1075.00,290.00
             1075.00,290.00 1091.00,289.00 1091.00,289.00
             1091.00,289.00 1106.00,289.00 1106.00,289.00
             1106.00,289.00 1122.00,290.00 1122.00,290.00
             1122.00,290.00 1141.00,290.00 1141.00,290.00
             1141.00,290.00 1162.00,291.00 1162.00,291.00
             1162.00,291.00 1172.00,291.93 1172.00,291.93
             1199.60,294.48 1204.56,300.79 1229.00,309.31
             1240.75,313.40 1254.74,316.23 1267.00,318.54
             1267.00,318.54 1315.00,324.16 1315.00,324.16
             1315.00,324.16 1371.00,330.00 1371.00,330.00
             1371.00,330.00 1392.00,330.00 1392.00,330.00
             1392.00,330.00 1420.00,326.14 1420.00,326.14
             1420.00,326.14 1440.00,326.14 1440.00,326.14
             1440.00,326.14 1481.00,331.00 1481.00,331.00
             1481.00,331.00 1489.00,331.00 1489.00,331.00
             1503.47,330.98 1517.16,324.68 1531.00,321.00
             1531.00,321.00 1531.00,489.00 1531.00,489.00
             1522.87,486.27 1518.26,483.48 1512.43,476.96
             1509.61,473.81 1503.53,464.90 1499.96,463.84
             1496.78,462.90 1493.65,465.10 1491.00,466.58
             1486.63,469.02 1482.09,471.55 1477.00,471.90
             1468.82,472.47 1464.14,468.33 1457.00,465.45
             1449.40,462.38 1441.16,461.01 1433.00,461.00
             1423.37,460.98 1413.55,461.11 1404.00,459.70
             1395.55,458.45 1395.40,455.03 1379.00,455.00
             1368.54,454.98 1358.32,454.44 1348.00,452.58
             1348.00,452.58 1313.00,444.04 1313.00,444.04
             1302.33,444.40 1294.11,450.82 1285.00,455.51
             1285.00,455.51 1267.00,463.12 1267.00,463.12
             1263.34,465.06 1257.44,469.36 1254.00,470.35
             1247.94,472.10 1244.43,468.22 1236.00,468.01
             1223.21,467.70 1215.75,473.00 1204.00,475.76
             1204.00,475.76 1195.00,477.59 1195.00,477.59
             1195.00,477.59 1181.00,481.58 1181.00,481.58
             1181.00,481.58 1167.00,484.16 1167.00,484.16
             1156.91,486.89 1155.78,490.93 1141.00,491.00
             1141.00,491.00 1123.00,491.00 1123.00,491.00
             1123.00,491.00 1111.00,491.90 1111.00,491.90
             1111.00,491.90 1092.00,490.04 1092.00,490.04
             1086.61,490.22 1081.42,492.40 1076.00,491.81
             1065.08,490.63 1054.33,484.23 1051.00,483.21
             1051.00,483.21 1023.00,483.21 1023.00,483.21
             1017.02,482.93 1012.12,481.45 1006.00,482.18
             1001.59,482.71 997.52,484.97 993.00,483.26
             987.51,481.19 985.47,475.50 979.99,472.21
             979.99,472.21 956.00,461.65 956.00,461.65
             956.00,461.65 942.00,450.44 942.00,450.44
             938.06,447.68 922.65,440.66 918.00,439.10
             918.00,439.10 905.00,437.10 905.00,437.10
             896.03,434.95 888.90,431.13 879.00,432.17
             868.81,433.25 864.34,438.36 851.00,437.98
             839.79,437.67 840.13,430.92 827.00,432.17
             809.65,433.82 805.30,442.01 791.00,439.68
             781.70,438.16 779.15,435.61 764.00,433.94
             755.31,433.34 752.18,435.43 741.00,433.94
             734.69,432.73 724.27,428.20 719.00,429.42
             719.00,429.42 696.00,441.69 696.00,441.69
             696.00,441.69 665.00,452.01 665.00,452.01
             665.00,452.01 644.00,462.97 644.00,462.97
             637.44,465.14 633.30,463.31 627.00,462.97
             620.69,462.76 614.10,463.51 608.00,465.16
             597.05,468.12 580.46,477.56 570.00,476.82
             570.00,476.82 546.00,473.18 546.00,473.18
             546.00,473.18 521.00,475.43 521.00,475.43
             521.00,475.43 501.00,478.00 501.00,478.00
             501.00,478.00 490.00,478.00 490.00,478.00
             490.00,478.00 466.00,479.99 466.00,479.99
             460.34,479.86 459.69,478.97 455.00,478.30
             455.00,478.30 439.00,476.84 439.00,476.84
             439.00,476.84 422.00,474.28 422.00,474.28
             422.00,474.28 385.00,470.84 385.00,470.84
             379.05,470.20 372.65,469.47 367.00,467.45
             361.50,465.49 358.67,463.09 352.00,461.50
             352.00,461.50 315.00,457.39 315.00,457.39
             301.76,455.00 280.76,448.14 269.00,447.88
             269.00,447.88 247.00,447.88 247.00,447.88
             247.00,447.88 224.00,453.63 224.00,453.63
             224.00,453.63 210.00,456.39 210.00,456.39
             210.00,456.39 161.00,465.74 161.00,465.74
             144.84,470.23 126.61,480.80 110.00,481.00
             95.16,481.17 81.42,483.74 69.00,492.63
             59.73,499.28 52.43,509.39 42.00,514.62
             33.66,518.81 9.77,520.97 0.00,521.00
             0.00,521.00 0.00,373.00 0.00,373.00 Z" />
</svg>
