<?xml version="1.0" encoding="UTF-8" standalone="no"?>
<!DOCTYPE svg PUBLIC "-//W3C//DTD SVG 20010904//EN"
              "http://www.w3.org/TR/2001/REC-SVG-20010904/DTD/svg10.dtd">

<svg xmlns="http://www.w3.org/2000/svg"
     width="5.10333in" height="3.26667in"
     viewBox="0 0 1531 980">
  <path id="Zaznaczenie"
        fill="none" stroke="black" stroke-width="1"
        d="M 1531.00,550.00
           C 1518.21,551.69 1502.76,552.97 1491.00,558.31
             1482.48,562.18 1478.27,566.85 1471.00,570.82
             1463.03,575.17 1448.09,578.99 1439.00,579.00
             1433.16,579.01 1428.74,578.61 1423.00,580.16
             1414.69,582.40 1408.37,586.45 1399.00,585.91
             1391.83,585.49 1386.43,582.24 1379.00,585.36
             1379.00,585.36 1351.00,602.42 1351.00,602.42
             1344.20,606.68 1342.43,609.29 1334.00,608.96
             1329.21,608.78 1316.44,606.04 1312.00,604.24
             1308.85,602.96 1304.99,599.97 1302.00,599.79
             1299.28,599.63 1297.03,601.44 1291.00,600.83
             1291.00,600.83 1272.00,595.89 1272.00,595.89
             1272.00,595.89 1250.00,592.28 1250.00,592.28
             1250.00,592.28 1213.00,589.00 1213.00,589.00
             1199.12,588.97 1200.27,586.81 1189.00,583.44
             1189.00,583.44 1167.00,578.28 1167.00,578.28
             1167.00,578.28 1151.00,572.53 1151.00,572.53
             1142.24,570.51 1137.44,571.91 1128.00,566.88
             1120.07,562.66 1116.84,555.25 1107.00,551.81
             1103.89,550.73 1100.27,551.01 1097.00,551.00
             1097.00,551.00 1087.00,550.18 1087.00,550.18
             1087.00,550.18 1076.00,550.18 1076.00,550.18
             1076.00,550.18 1064.00,550.90 1064.00,550.90
             1061.61,550.74 1047.56,546.57 1045.00,545.53
             1032.46,540.42 1031.88,535.94 1024.00,529.21
             1019.38,525.27 1017.08,525.72 1014.37,523.44
             1012.25,521.66 1011.10,518.82 1007.96,517.18
             1003.10,514.63 999.62,517.79 995.00,517.79
             995.00,517.79 986.00,516.05 986.00,516.05
             986.00,516.05 969.00,516.05 969.00,516.05
             959.73,516.11 953.56,519.67 945.00,521.48
             941.02,522.33 930.65,521.98 926.00,522.00
             911.01,522.07 916.59,526.97 900.00,529.72
             893.03,530.65 888.94,529.37 883.00,529.72
             883.00,529.72 838.00,529.72 838.00,529.72
             830.05,529.99 822.68,530.26 815.00,532.84
             815.00,532.84 806.00,537.12 806.00,537.12
             803.80,538.05 790.14,541.86 788.00,541.95
             788.00,541.95 772.00,540.17 772.00,540.17
             766.85,539.67 764.17,540.53 759.00,538.08
             750.95,534.28 749.64,527.52 739.00,527.04
             739.00,527.04 723.00,527.99 723.00,527.99
             723.00,527.99 703.00,526.38 703.00,526.38
             703.00,526.38 690.00,523.28 690.00,523.28
             690.00,523.28 670.00,520.68 670.00,520.68
             662.56,519.43 655.75,515.64 648.00,516.09
             633.04,516.96 618.58,525.03 607.00,526.85
             607.00,526.85 597.00,526.85 597.00,526.85
             591.64,526.93 587.65,526.32 583.00,523.44
             578.70,520.78 574.46,515.84 569.00,516.38
             569.00,516.38 546.00,524.33 546.00,524.33
             546.00,524.33 508.00,536.00 508.00,536.00
             508.00,536.00 488.00,543.96 488.00,543.96
             483.28,545.31 482.38,544.74 478.00,545.17
             478.00,545.17 461.00,546.91 461.00,546.91
             461.00,546.91 454.00,546.04 454.00,546.04
             454.00,546.04 439.00,546.04 439.00,546.04
             439.00,546.04 411.00,543.01 411.00,543.01
             404.84,543.15 399.34,545.39 394.00,544.81
             394.00,544.81 371.00,541.18 371.00,541.18
             371.00,541.18 365.00,541.69 365.00,541.69
             365.00,541.69 358.00,541.69 358.00,541.69
             358.00,541.69 342.00,543.28 342.00,543.28
             342.00,543.28 328.00,545.67 328.00,545.67
             320.46,546.33 304.46,540.45 298.00,536.54
             293.74,533.96 289.46,529.85 285.00,528.26
             281.35,526.96 277.80,527.01 274.00,527.00
             274.00,527.00 260.00,527.00 260.00,527.00
             250.72,526.87 252.09,524.16 246.00,522.78
             242.49,521.65 237.04,522.95 233.00,522.78
             216.87,523.18 214.73,520.07 201.00,518.29
             191.77,517.09 188.63,519.48 177.00,515.64
             177.00,515.64 153.00,504.20 153.00,504.20
             153.00,504.20 126.00,490.75 126.00,490.75
             123.25,489.37 117.63,486.86 117.61,483.21
             117.59,480.00 123.64,479.25 126.00,478.57
             126.00,478.57 153.00,468.86 153.00,468.86
             153.00,468.86 166.00,464.48 166.00,464.48
             166.00,464.48 219.00,454.92 219.00,454.92
             219.00,454.92 248.00,447.48 248.00,447.48
             248.00,447.48 272.00,448.00 272.00,448.00
             281.88,448.12 297.68,453.30 308.00,455.58
             308.00,455.58 327.00,458.83 327.00,458.83
             327.00,458.83 351.00,460.81 351.00,460.81
             360.97,462.80 363.86,467.19 376.00,469.38
             376.00,469.38 424.00,474.28 424.00,474.28
             424.00,474.28 439.00,476.71 439.00,476.71
             439.00,476.71 456.00,478.18 456.00,478.18
             456.00,478.18 466.00,479.96 466.00,479.96
             466.00,479.96 493.00,477.74 493.00,477.74
             493.00,477.74 544.00,473.04 544.00,473.04
             554.28,472.61 557.65,475.88 568.00,475.77
             571.15,476.03 574.93,476.11 578.00,475.77
             587.49,473.74 602.58,463.22 621.00,463.23
             621.00,463.23 641.00,463.23 641.00,463.23
             641.00,463.23 663.00,452.23 663.00,452.23
             674.25,447.46 677.88,449.21 697.00,440.56
             703.45,437.65 712.96,430.21 719.00,428.65
             724.32,427.27 733.39,431.76 739.00,433.10
             745.18,434.58 755.30,433.93 762.00,434.00
             777.89,434.19 789.81,440.30 797.00,439.89
             805.41,439.41 813.37,432.17 828.00,432.00
             831.14,431.97 835.04,431.83 838.00,432.87
             843.55,434.83 844.39,438.23 853.00,437.96
             861.23,437.70 870.69,433.11 879.00,431.84
             888.19,429.96 897.85,431.09 907.00,431.84
             911.97,432.61 918.13,429.52 923.00,430.43
             927.88,431.34 930.74,435.41 934.00,436.98
             935.92,437.90 946.55,437.84 949.00,437.59
             952.08,437.27 967.63,433.09 969.61,431.35
             973.21,428.20 973.33,423.21 978.10,420.00
             982.99,416.72 988.79,417.83 991.57,415.40
             994.89,412.51 993.04,408.02 997.23,404.56
             999.69,402.52 1002.83,402.52 1006.00,400.88
             1009.38,399.13 1010.89,397.01 1015.00,395.34
             1015.00,395.34 1027.00,391.53 1027.00,391.53
             1027.00,391.53 1034.00,390.44 1034.00,390.44
             1034.00,390.44 1058.00,378.61 1058.00,378.61
             1063.62,376.69 1070.12,376.92 1076.00,377.00
             1078.40,377.04 1080.72,377.00 1082.91,378.17
             1085.26,379.43 1087.06,381.96 1089.09,383.75
             1089.09,383.75 1105.00,396.05 1105.00,396.05
             1115.04,402.36 1125.93,408.22 1137.00,412.54
             1137.00,412.54 1147.00,415.56 1147.00,415.56
             1147.00,415.56 1155.00,419.94 1155.00,419.94
             1157.67,420.97 1159.61,420.16 1161.95,421.26
             1166.87,423.59 1166.60,430.23 1174.00,433.11
             1174.00,433.11 1189.00,437.25 1189.00,437.25
             1189.00,437.25 1208.00,435.70 1208.00,435.70
             1212.69,435.03 1213.34,434.14 1219.00,434.01
             1233.47,433.68 1236.60,439.29 1244.00,440.19
             1244.00,440.19 1276.00,442.18 1276.00,442.18
             1282.31,442.95 1289.07,446.46 1298.00,445.91
             1304.62,445.50 1303.42,443.87 1315.00,444.00
             1315.00,444.00 1348.00,452.20 1348.00,452.20
             1359.99,454.51 1371.82,454.98 1384.00,455.00
             1396.52,455.02 1394.42,457.44 1404.00,459.48
             1404.00,459.48 1426.00,461.00 1426.00,461.00
             1436.08,461.02 1445.24,460.72 1455.00,464.10
             1462.09,466.55 1469.34,472.56 1477.00,471.80
             1485.70,470.94 1493.04,462.83 1498.00,462.62
             1502.68,462.41 1505.87,467.78 1508.45,471.00
             1511.91,475.31 1514.63,478.72 1519.00,482.18
             1529.19,490.26 1530.98,485.37 1531.00,497.00
             1531.00,497.00 1531.00,550.00 1531.00,550.00 Z" />
</svg>
